# xmcd CD database file
# Copyright (C) 1997 Ti Kan
# 
# Track frame offsets:
#     183
#     9758
#     21663
#     32993
#     45303
#     53915
#     60765
#     72438
#     81200
#     96270
#     108618
#     120523
#     131718
#     142278
#     155938
#     166620
#     180403
#     190848
#     202065
#     213758
# 
# Disc length: 2988 seconds
# 
# Revision: 1
# Processed by: cddbd v1.4b41PL1 Copyright (c) Steve Scherf et al.
# Submitted via: DiscPlay 4.0.4
# 
DISCID=1a0baa14
DTITLE=Willie Nelson - Waylon Jennings - ???
DYEAR=1900
DGENRE=
TTITLE0=Building Heartaches
TTITLE1=Crying
TTITLE2=Sally Was A Good Old Girl
TTITLE3=Pages
TTITLE4=Abilene
TTITLE5=It's So Easy
TTITLE6=Is There Something On Your Mind
TTITLE7=Love's Gonna Live Here
TTITLE8=Face Of A Fighter
TTITLE9=Don't Think Twice
TTITLE10=I Hope So
TTITLE11=Dream Baby
TTITLE12=Lorena
TTITLE13=Everything But You
TTITLE14=Burning Memories
TTITLE15=A Moment Isn't Very Long
TTITLE16=White Lightnin'
TTITLE17=Big Mamou
TTITLE18=Some Other Time
TTITLE19=Money
EXTD=
EXTT0=
EXTT1=
EXTT2=
EXTT3=
EXTT4=
EXTT5=
EXTT6=
EXTT7=
EXTT8=
EXTT9=
EXTT10=
EXTT11=
EXTT12=
EXTT13=
EXTT14=
EXTT15=
EXTT16=
EXTT17=
EXTT18=
EXTT19=
PLAYORDER=
